<svg id="DV登录02" xmlns="http://www.w3.org/2000/svg" width="241.75" height="48.438" viewBox="0 0 241.75 48.438">
  <defs>
    <style>
      .cls-1 {
        font-size: 18px;
        font-family: "Microsoft YaHei";
        font-weight: 700;
      }

      .cls-1, .cls-2 {
        fill: #fff;
      }

      .cls-2 {
        fill-rule: evenodd;
      }
    </style>
  </defs>
  <text id="FinancialAdviser" class="cls-1" transform="translate(54.563 36.379) scale(1.615)">财务顾问系统</text>
  <path id="形状_4_拷贝_2" data-name="形状 4 拷贝 2" class="cls-2" d="M2637.08,331.528a1.589,1.589,0,0,0-1.63,0l-16.16,9.628a1.671,1.671,0,0,0-.8,1.426v19.309a1.676,1.676,0,0,0,.8,1.429l16.16,9.624a1.589,1.589,0,0,0,1.63,0l16.15-9.624a1.649,1.649,0,0,0,.8-1.426V342.582a1.649,1.649,0,0,0-.8-1.426Zm1.62-2.851,16.16,9.627a4.969,4.969,0,0,1,2.4,4.278v19.309a4.974,4.974,0,0,1-2.4,4.281L2638.7,375.8a4.748,4.748,0,0,1-4.88,0l-16.16-9.624a4.991,4.991,0,0,1-2.4-4.278V342.582a4.991,4.991,0,0,1,2.4-4.278l16.16-9.627a4.748,4.748,0,0,1,4.88,0h0Zm5.64,14.942V360.93h-3.23V343.619h3.23Zm-12.93,0V360.93h-3.23V343.619h3.23Zm-6.46,5.193v6.924h-3.23v-6.924h3.23Zm25.85,0v6.924h-3.23v-6.924h3.23Zm-12.92-10.387v27.7h-3.23v-27.7h3.23Zm0,0" transform="translate(-2615.25 -328.031)"/>
</svg>
