<svg id="DV" xmlns="http://www.w3.org/2000/svg" width="149" height="30" viewBox="0 0 149 30">
  <defs>
    <style>
      .cls-1 {
        font-size: 18px;
        font-family: "Microsoft YaHei";
        font-weight: 700;
      }

      .cls-1, .cls-2 {
        fill: #fff;
      }

      .cls-2 {
        fill-rule: evenodd;
      }
    </style>
  </defs>
  <text id="DealViewer" class="cls-1" x="33.769" y="22.535">财务顾问系统</text>
  <path id="形状_4_拷贝_2" data-name="形状 4 拷贝 2" class="cls-2" d="M33.5,192.181a0.985,0.985,0,0,0-1.008,0l-10,5.96a1.026,1.026,0,0,0-.5.883v11.952a1.023,1.023,0,0,0,.5.884l10,5.958a0.985,0.985,0,0,0,1.008,0l10-5.958a1.025,1.025,0,0,0,.5-0.882V199.024a1.026,1.026,0,0,0-.5-0.883Zm1.008-1.765,10,5.96A3.077,3.077,0,0,1,46,199.024v11.952a3.079,3.079,0,0,1-1.488,2.65l-10,5.957a2.946,2.946,0,0,1-3.024,0l-10-5.957A3.078,3.078,0,0,1,20,210.978V199.024a3.076,3.076,0,0,1,1.488-2.648l10-5.96a2.946,2.946,0,0,1,3.024,0h0ZM38,199.665v10.716H36V199.665h2Zm-8,0v10.716H28V199.665h2Zm-4,3.215v4.286H24V202.88h2Zm16,0v4.286H40V202.88h2Zm-8-6.43V213.6H32V196.45h2Zm0,0" transform="translate(-20 -190)"/>
</svg>
